<?xml version="1.0" encoding="UTF-8"?><svg id="uuid-421f2c6c-e9eb-4929-8175-69b7fa394186" xmlns="http://www.w3.org/2000/svg" viewBox="0 0 1080 864"><defs><style>.uuid-10f0fe51-03da-483c-a8a8-86e87eec6146{fill:#f08487;}.uuid-10f0fe51-03da-483c-a8a8-86e87eec6146,.uuid-81d15388-011d-4070-adf8-5c4caed3fcf9,.uuid-18b7091b-2717-444a-87ff-8309723c0e38,.uuid-05450da6-87d8-403b-adf9-eb7f65803cbf,.uuid-5805d72a-3d64-402c-b357-d4ee4136ee47,.uuid-224c5497-2dc8-4908-bf5a-f9834191c137,.uuid-3bf6ebfc-6e37-4b19-b024-a7787c60d3bb,.uuid-cc6059d7-1060-4380-9476-1c9f561f2fbf,.uuid-af0d452d-9e87-4e59-a4ab-31c5f59b9fa7{stroke-width:5px;}.uuid-10f0fe51-03da-483c-a8a8-86e87eec6146,.uuid-81d15388-011d-4070-adf8-5c4caed3fcf9,.uuid-18b7091b-2717-444a-87ff-8309723c0e38,.uuid-05450da6-87d8-403b-adf9-eb7f65803cbf,.uuid-5805d72a-3d64-402c-b357-d4ee4136ee47,.uuid-cc6059d7-1060-4380-9476-1c9f561f2fbf,.uuid-af0d452d-9e87-4e59-a4ab-31c5f59b9fa7{stroke-miterlimit:10;}.uuid-10f0fe51-03da-483c-a8a8-86e87eec6146,.uuid-18b7091b-2717-444a-87ff-8309723c0e38,.uuid-05450da6-87d8-403b-adf9-eb7f65803cbf,.uuid-5805d72a-3d64-402c-b357-d4ee4136ee47,.uuid-224c5497-2dc8-4908-bf5a-f9834191c137,.uuid-3bf6ebfc-6e37-4b19-b024-a7787c60d3bb,.uuid-af0d452d-9e87-4e59-a4ab-31c5f59b9fa7{stroke:#1d1d1b;}.uuid-81d15388-011d-4070-adf8-5c4caed3fcf9{stroke:#f5b1b1;}.uuid-81d15388-011d-4070-adf8-5c4caed3fcf9,.uuid-05450da6-87d8-403b-adf9-eb7f65803cbf{fill:#f5b1b1;}.uuid-18b7091b-2717-444a-87ff-8309723c0e38{fill:#ea565c;}.uuid-5805d72a-3d64-402c-b357-d4ee4136ee47,.uuid-224c5497-2dc8-4908-bf5a-f9834191c137{fill:#ececec;}.uuid-d9e3a041-dcc8-4f40-bee2-f51ef12bf5a7{fill:#1d1d1b;}.uuid-224c5497-2dc8-4908-bf5a-f9834191c137,.uuid-3bf6ebfc-6e37-4b19-b024-a7787c60d3bb{stroke-linejoin:round;}.uuid-3bf6ebfc-6e37-4b19-b024-a7787c60d3bb{fill:#fff;}.uuid-cc6059d7-1060-4380-9476-1c9f561f2fbf{stroke:#1f1f1e;}.uuid-cc6059d7-1060-4380-9476-1c9f561f2fbf,.uuid-af0d452d-9e87-4e59-a4ab-31c5f59b9fa7{fill:none;}</style></defs><circle class="uuid-05450da6-87d8-403b-adf9-eb7f65803cbf" cx="945.64" cy="758.52" r="49.85"/><circle class="uuid-18b7091b-2717-444a-87ff-8309723c0e38" cx="986.16" cy="313.54" r="49.27"/><circle class="uuid-5805d72a-3d64-402c-b357-d4ee4136ee47" cx="275.67" cy="101.57" r="52.24"/><circle class="uuid-05450da6-87d8-403b-adf9-eb7f65803cbf" cx="187.36" cy="250.38" r="76.97"/><circle class="uuid-5805d72a-3d64-402c-b357-d4ee4136ee47" cx="847.97" cy="568.86" r="76.23"/><circle class="uuid-5805d72a-3d64-402c-b357-d4ee4136ee47" cx="813.04" cy="139.43" r="110.2"/><circle class="uuid-18b7091b-2717-444a-87ff-8309723c0e38" cx="154.1" cy="708.67" r="99.23"/><g><rect class="uuid-05450da6-87d8-403b-adf9-eb7f65803cbf" x="348.73" y="384.42" width="382.54" height="271.33" rx="17.01" ry="17.01" transform="translate(1080 1040.17) rotate(-180)"/><g><circle class="uuid-5805d72a-3d64-402c-b357-d4ee4136ee47" cx="540" cy="384.37" r="68.83"/><rect class="uuid-18b7091b-2717-444a-87ff-8309723c0e38" x="516.43" y="360.81" width="47.13" height="47.13"/></g><rect class="uuid-81d15388-011d-4070-adf8-5c4caed3fcf9" x="432.2" y="422.24" width="206.59" height="139.63"/><line class="uuid-cc6059d7-1060-4380-9476-1c9f561f2fbf" x1="372.57" y1="422.24" x2="707.43" y2="422.24"/></g><g><line class="uuid-af0d452d-9e87-4e59-a4ab-31c5f59b9fa7" x1="542.06" y1="124.42" x2="542.06" y2="205.16"/><polygon class="uuid-d9e3a041-dcc8-4f40-bee2-f51ef12bf5a7" points="557.24 203.12 526.87 203.12 542.06 218.3 557.24 203.12"/></g><g><line class="uuid-af0d452d-9e87-4e59-a4ab-31c5f59b9fa7" x1="712.41" y1="257.85" x2="655.32" y2="314.94"/><polygon class="uuid-d9e3a041-dcc8-4f40-bee2-f51ef12bf5a7" points="667.49 324.24 646.02 302.76 646.02 324.23 667.49 324.24"/></g><g><line class="uuid-af0d452d-9e87-4e59-a4ab-31c5f59b9fa7" x1="349.23" y1="257.85" x2="406.33" y2="314.94"/><polygon class="uuid-d9e3a041-dcc8-4f40-bee2-f51ef12bf5a7" points="415.63 302.76 394.15 324.24 415.62 324.23 415.63 302.76"/></g><g><circle class="uuid-05450da6-87d8-403b-adf9-eb7f65803cbf" cx="802.71" cy="139.43" r="38.46"/><line class="uuid-05450da6-87d8-403b-adf9-eb7f65803cbf" x1="861.84" y1="113.18" x2="861.84" y2="165.69"/></g><circle class="uuid-3bf6ebfc-6e37-4b19-b024-a7787c60d3bb" cx="187.36" cy="250.38" r="33.26"/><g><line class="uuid-224c5497-2dc8-4908-bf5a-f9834191c137" x1="99.85" y1="683.45" x2="179.77" y2="683.45"/><line class="uuid-224c5497-2dc8-4908-bf5a-f9834191c137" x1="99.85" y1="708.67" x2="208.36" y2="708.67"/><line class="uuid-224c5497-2dc8-4908-bf5a-f9834191c137" x1="99.85" y1="733.89" x2="163.23" y2="733.89"/></g><g><line class="uuid-224c5497-2dc8-4908-bf5a-f9834191c137" x1="917.8" y1="766.54" x2="958.81" y2="766.54"/><line class="uuid-224c5497-2dc8-4908-bf5a-f9834191c137" x1="917.8" y1="750.5" x2="973.49" y2="750.5"/></g><g><line class="uuid-224c5497-2dc8-4908-bf5a-f9834191c137" x1="958.32" y1="321.56" x2="999.33" y2="321.56"/><line class="uuid-224c5497-2dc8-4908-bf5a-f9834191c137" x1="958.32" y1="305.51" x2="1014.01" y2="305.51"/></g><g><line class="uuid-224c5497-2dc8-4908-bf5a-f9834191c137" x1="247.82" y1="109.6" x2="288.84" y2="109.6"/><line class="uuid-224c5497-2dc8-4908-bf5a-f9834191c137" x1="247.82" y1="93.55" x2="303.51" y2="93.55"/></g><polygon class="uuid-10f0fe51-03da-483c-a8a8-86e87eec6146" points="806.2 593.31 859.09 544.42 889.75 575.92 889.75 593.31 806.2 593.31"/></svg>