<?xml version="1.0" encoding="UTF-8"?><svg id="uuid-7f1110a6-6888-4e03-b436-0beb7162f91d" xmlns="http://www.w3.org/2000/svg" viewBox="0 0 1080 864"><defs><style>.uuid-eb71a5d9-e976-4f32-ae74-f6c55239fb5d{fill:#f08487;}.uuid-eb71a5d9-e976-4f32-ae74-f6c55239fb5d,.uuid-8dd0ea9b-a150-4a8d-a3c0-f4f99c85a27f,.uuid-365e89a4-00a2-4c17-b0f5-d16f4965b722,.uuid-f1e75d4f-68c7-47ea-af27-0ddfc14e6a8a,.uuid-cdb0b552-8e0f-43d1-b5dd-7915c5606a38,.uuid-1989ed35-eb6e-4bcd-90f9-d0bca494d506{stroke:#1d1d1b;stroke-miterlimit:10;stroke-width:5px;}.uuid-8dd0ea9b-a150-4a8d-a3c0-f4f99c85a27f{fill:#ea565c;}.uuid-365e89a4-00a2-4c17-b0f5-d16f4965b722{fill:#f5b1b1;}.uuid-f1e75d4f-68c7-47ea-af27-0ddfc14e6a8a{fill:#ececec;}.uuid-cdb0b552-8e0f-43d1-b5dd-7915c5606a38,.uuid-1989ed35-eb6e-4bcd-90f9-d0bca494d506{fill:none;}.uuid-1989ed35-eb6e-4bcd-90f9-d0bca494d506{stroke-dasharray:0 0 0 12;stroke-linecap:round;}</style></defs><polyline class="uuid-cdb0b552-8e0f-43d1-b5dd-7915c5606a38" points="156.5 305.25 359.9 128.47 520.73 347.25 591.69 579.38 783.67 749.76 802.15 164.76 591.69 579.38"/><line class="uuid-cdb0b552-8e0f-43d1-b5dd-7915c5606a38" x1="923.59" y1="510.33" x2="802.15" y2="164.76"/><polyline class="uuid-cdb0b552-8e0f-43d1-b5dd-7915c5606a38" points="520.73 347.25 206.25 698.54 359.9 128.47"/><rect class="uuid-365e89a4-00a2-4c17-b0f5-d16f4965b722" x="641.8" y="51.68" width="318.86" height="226.16" rx="17.01" ry="17.01" transform="translate(1602.46 329.52) rotate(-180)"/><circle class="uuid-eb71a5d9-e976-4f32-ae74-f6c55239fb5d" cx="155.03" cy="305.25" r="66.12"/><circle class="uuid-8dd0ea9b-a150-4a8d-a3c0-f4f99c85a27f" cx="520.73" cy="347.25" r="56.31"/><g><g><circle class="uuid-f1e75d4f-68c7-47ea-af27-0ddfc14e6a8a" cx="746.25" cy="100.61" r="17.4"/><circle class="uuid-f1e75d4f-68c7-47ea-af27-0ddfc14e6a8a" cx="690.36" cy="100.61" r="17.4"/></g><g><circle class="uuid-eb71a5d9-e976-4f32-ae74-f6c55239fb5d" cx="746.25" cy="164.76" r="17.4"/><circle class="uuid-eb71a5d9-e976-4f32-ae74-f6c55239fb5d" cx="690.36" cy="164.76" r="17.4"/><circle class="uuid-eb71a5d9-e976-4f32-ae74-f6c55239fb5d" cx="802.15" cy="164.76" r="17.4"/><circle class="uuid-eb71a5d9-e976-4f32-ae74-f6c55239fb5d" cx="858.04" cy="164.76" r="17.4"/></g><g><circle class="uuid-8dd0ea9b-a150-4a8d-a3c0-f4f99c85a27f" cx="746.25" cy="228.91" r="17.4"/><circle class="uuid-8dd0ea9b-a150-4a8d-a3c0-f4f99c85a27f" cx="690.36" cy="228.91" r="17.4"/><circle class="uuid-8dd0ea9b-a150-4a8d-a3c0-f4f99c85a27f" cx="802.15" cy="228.91" r="17.4"/></g><line class="uuid-1989ed35-eb6e-4bcd-90f9-d0bca494d506" x1="672.95" y1="132.69" x2="929.51" y2="132.69"/><line class="uuid-1989ed35-eb6e-4bcd-90f9-d0bca494d506" x1="672.95" y1="196.84" x2="929.51" y2="196.84"/></g><circle class="uuid-8dd0ea9b-a150-4a8d-a3c0-f4f99c85a27f" cx="782.2" cy="749.76" r="61.26"/><circle class="uuid-f1e75d4f-68c7-47ea-af27-0ddfc14e6a8a" cx="359.9" cy="128.47" r="68.27"/><circle class="uuid-eb71a5d9-e976-4f32-ae74-f6c55239fb5d" cx="591.69" cy="579.38" r="68.27"/><circle class="uuid-f1e75d4f-68c7-47ea-af27-0ddfc14e6a8a" cx="206.25" cy="698.54" r="90.17"/><circle class="uuid-f1e75d4f-68c7-47ea-af27-0ddfc14e6a8a" cx="923.59" cy="510.33" r="90.17"/></svg>